<svg width="40" height="40" viewBox="0 0 40 40" fill="none" xmlns="http://www.w3.org/2000/svg">
  <rect width="40" height="40" rx="12" fill="url(#gradient)" />
  <path
    d="M12 14c-2.76 0-5 2.24-5 5v2c0 2.76 2.24 5 5 5h1.6l1.8 3.2h9.2l1.8-3.2H28c2.76 0 5-2.24 5-5v-2c0-2.76-2.24-5-5-5H12Z"
    fill="white"
    opacity="0.95"
  />
  <rect x="15" y="18.5" width="6" height="1.5" rx="0.75" fill="#3AA07A" />
  <rect x="17.75" y="16" width="1.5" height="6" rx="0.75" fill="#3AA07A" />
  <circle cx="25.5" cy="19.5" r="1.5" fill="#3AA07A" />
  <circle cx="28.5" cy="22.5" r="1.5" fill="#3AA07A" />
  <circle cx="14.5" cy="23.5" r="1.3" fill="#3AA07A" />
  <defs>
    <linearGradient id="gradient" x1="8" y1="6" x2="32" y2="34" gradientUnits="userSpaceOnUse">
      <stop offset="0" stop-color="#5DB996" />
      <stop offset="1" stop-color="#3AA07A" />
    </linearGradient>
  </defs>
</svg>
